Coordinates
version=1
nRows=7
nColumns=46
inDegrees=yes

Units are S.I. units (second, meters, Newtons, ...)
Angles are in degrees.

endheader
time	pelvis_tilt	pelvis_list	pelvis_rotation	pelvis_tx	pelvis_ty	pelvis_tz	bb_angle	bb_tx	bb_ty	bb_tz	hip_flexion_r	hip_adduction_r	hip_rotation_r	knee_angle_r	knee_angle_r_beta	ankle_angle_r	subtalar_angle_r	mtp_angle_r	crank_angle_r	hip_flexion_l	hip_adduction_l	hip_rotation_l	knee_angle_l	knee_angle_l_beta	ankle_angle_l	subtalar_angle_l	mtp_angle_l	crank_angle_l	lumbar_extension	lumbar_bending	lumbar_rotation	arm_flex_r	arm_add_r	arm_rot_r	elbow_flex_r	pro_sup_r	wrist_flex_r	wrist_dev_r	arm_flex_l	arm_add_l	arm_rot_l	elbow_flex_l	pro_sup_l	wrist_flex_l	wrist_dev_l
      5.00500000	    -30.59827882	     -6.32083648	     -4.22495403	      0.44658722	      1.17340619	     -0.25914013	      0.00000000	      0.50000000	      0.00000000	      0.25000000	     63.99507136	      2.52356919	     -2.24226831	     98.24231607	      1.71465188	      2.27811615	     -8.24090245	      0.00000000	      0.00000000	     41.77467980	    -13.85286195	     -2.89578353	     30.10541883	      0.52543868	    -10.66243971	      2.55504314	      0.00000000	      0.00000000	    -62.77540190	      3.50877378	     -2.27908215	     38.16678369	    -18.21255700	     23.86085355	    101.14022170	     50.00136121	      0.00000000	      0.00000000	     10.91772372	    -29.06832092	     -4.55804400	    113.63447763	     53.42892283	      0.00000000	      0.00000000
      5.01000000	    -30.59295864	     -6.58573281	     -5.18951333	      0.44715345	      1.17293476	     -0.25885015	      0.00000000	      0.50000000	      0.00000000	      0.25000000	     65.26029539	      3.43917338	     -2.06746858	     99.59056832	      1.73818332	      3.06794553	     -8.20731072	      0.00000000	      0.00000000	     40.07758120	    -14.74965191	     -4.34317619	     28.38242795	      0.49536682	    -11.70831047	      3.44627262	      0.00000000	      0.00000000	    -62.78874024	      3.15130420	     -1.51163408	     38.35428284	    -18.77664600	     24.34639681	    101.29827802	     50.07148128	      0.00000000	      0.00000000	     10.87651496	    -28.34634743	     -4.78567883	    113.32325492	     53.36520672	      0.00000000	      0.00000000
      5.01500000	    -30.62343510	     -6.90778427	     -6.09117382	      0.44761705	      1.17244014	     -0.25861170	      0.00000000	      0.50000000	      0.00000000	      0.25000000	     66.56057077	      4.32686179	     -1.99101624	    100.83224141	      1.75985460	      3.69245065	     -8.08237469	      0.00000000	      0.00000000	     38.50541018	    -15.64589107	     -5.80779122	     26.82210056	      0.46813397	    -12.73752250	      4.31809671	      0.00000000	      0.00000000	    -62.74497170	      2.86939608	     -0.75793994	     38.54467834	    -19.25285284	     24.76468354	    101.41466910	     50.12597373	      0.00000000	      0.00000000	     10.72642177	    -27.82362876	     -4.96116407	    113.09673578	     53.32115076	      0.00000000	      0.00000000
      5.02000000	    -30.61799765	     -7.14704156	     -6.99789284	      0.44812073	      1.17213877	     -0.25844053	      0.00000000	      0.50000000	      0.00000000	      0.25000000	     67.82161003	      5.16987695	     -1.88170027	    101.93801012	      1.77915391	      4.23724738	     -7.94533010	      0.00000000	      0.00000000	     36.89390675	    -16.43343914	     -7.40272154	     25.35494671	      0.44252730	    -13.75326241	      5.34125647	      0.00000000	      0.00000000	    -62.78083133	      2.54210860	     -0.06184790	     38.78019963	    -19.78852805	     25.27535835	    101.60804638	     50.19844866	      0.00000000	      0.00000000	     10.65770197	    -27.34359947	     -5.11871587	    112.81918413	     53.28430353	      0.00000000	      0.00000000
      5.02500000	    -30.68563224	     -7.32241039	     -7.85525361	      0.44839116	      1.17171078	     -0.25823653	      0.00000000	      0.50000000	      0.00000000	      0.25000000	     69.18013495	      5.90024445	     -1.78976753	    102.96535985	      1.79708454	      4.68287784	     -7.75811624	      0.00000000	      0.00000000	     35.44707045	    -17.09842143	     -8.96075149	     24.05063758	      0.41976281	    -14.80304736	      6.11756597	      0.00000000	      0.00000000	    -62.70524957	      2.19469634	      0.53533449	     38.94948671	    -20.21590815	     25.64801738	    101.71308184	     50.24510837	      0.00000000	      0.00000000	     10.44538123	    -26.98266209	     -5.20743337	    112.65949739	     53.26469851	      0.00000000	      0.00000000
      5.03000000	    -30.72548153	     -7.43199013	     -8.70886974	      0.44868196	      1.17147007	     -0.25792110	      0.00000000	      0.50000000	      0.00000000	      0.25000000	     70.48386463	      6.59740818	     -1.72066885	    103.82242075	      1.81204308	      4.91427977	     -7.75527363	      0.00000000	      0.00000000	     34.01774845	    -17.72801146	    -10.73110242	     22.89922431	      0.39966686	    -15.75499164	      7.21118509	      0.00000000	      0.00000000	    -62.71016393	      1.79429539	      1.10668262	     39.14109433	    -20.67632820	     26.08002318	    101.90375003	     50.31073663	      0.00000000	      0.00000000	     10.32582879	    -26.65643117	     -5.29564931	    112.47771087	     53.24251108	      0.00000000	      0.00000000
      5.03500000	    -30.86195081	     -7.48830987	     -9.42749699	      0.44866517	      1.17110450	     -0.25787797	      0.00000000	      0.50000000	      0.00000000	      0.25000000	     71.91291673	      7.14305620	     -1.70100032	    104.59786302	      1.82557710	      5.14686310	     -7.74157997	      0.00000000	      0.00000000	     32.82462923	    -18.18175609	    -12.26393166	     21.90435792	      0.38230317	    -16.72716438	      8.09652789	      0.00000000	      0.00000000	    -62.60989543	      1.49108989	      1.58068228	     39.30028480	    -21.11049111	     26.44945907	    102.09939726	     50.37450365	      0.00000000	      0.00000000	     10.17847142	    -26.34402970	     -5.34203757	    112.34105905	     53.23637631	      0.00000000	      0.00000000
